# xmcd
#
# Track frame offsets: 
#        150
#        12836
#        31013
#        47816
#        65154
#        91304
#        112209
#        133738
#        150451
#        165868
#        196990
#        223715
#
# Disc length: 3315 seconds
#
# Revision: 0
# Processed by: cddbd v1.5.2PL0 Copyright (c) Steve Scherf et al.
# Submitted via: ExactAudioCopy v0.99pb5
#
DISCID=9e0cf10c
DTITLE=Martyna Jakubowicz and Zona Lota - Okruchy zycia
DYEAR=2010
DGENRE=Blues
TTITLE0=Li Bai
TTITLE1=Niech plonie
TTITLE2=Ten wieczor spedze w domu
TTITLE3=Spiewam, lecz brak mi slow
TTITLE4=Mam dary boze
TTITLE5=Pan Kasa
TTITLE6=Nie tylko ja jedna
TTITLE7=Anty-koleda
TTITLE8=Co znaczy osobno
TTITLE9=Awram, ojciec twoj
TTITLE10=Lorca jest snem
TTITLE11=Handle slowami
EXTD=
EXTT0=
EXTT1=
EXTT2=
EXTT3=
EXTT4=
EXTT5=
EXTT6=
EXTT7=
EXTT8=
EXTT9=
EXTT10=
EXTT11=
PLAYORDER=
